<?xml version="1.0" encoding="utf-8"?>
<svg viewBox="0 0 400 400" xmlns="http://www.w3.org/2000/svg">
  <ellipse style="fill: rgb(39, 39, 39); stroke: none; stroke-width: 0;" cx="199.63592529" cy="200.20826721" rx="196.87741089" ry="196.87737846"/>
  <path d="M 229.35354614257812 79.4961166381836 C 229.35354614257812 79.4961166381836 231.2977294921875 79.98780822753906 235.18606567382812 80.9711685180664 C 239.0744171142578 81.96353912353516 242.06056213378906 82.93788146972656 244.14454650878906 83.89417266845703 C 246.21954345703125 84.8504867553711 247.25704956054688 85.78421020507812 247.25704956054688 86.6954116821289 C 247.25704956054688 87.59757995605469 246.40447998046875 88.8470687866211 244.6994171142578 90.44391632080078 C 242.99432373046875 92.04975891113281 240.8607177734375 93.8360595703125 238.29855346679688 95.80277252197266 C 235.74539184570312 97.77851867675781 232.92160034179688 99.88508605957031 229.8271942138672 102.1224365234375 C 226.73277282714844 104.35981750488281 223.80072021484375 106.38518524169922 221.0310821533203 108.19853973388672 C 214.418212890625 112.56502532958984 210.4757080078125 114.96478271484375 209.20370483398438 115.39783477783203 C 209.3029327392578 114.96478271484375 210.10134887695312 114.16184997558594 211.5989227294922 112.98902893066406 C 214.36862182617188 110.75167846679688 215.75340270996094 109.33978271484375 215.75340270996094 108.75337219238281 C 215.75340270996094 108.16696166992188 215.51434326171875 107.6888198852539 215.03619384765625 107.31893157958984 C 214.55804443359375 106.94902801513672 214.0257568359375 106.6287612915039 213.4393310546875 106.35811614990234 C 212.85293579101562 106.09648895263672 212.29359436035156 105.857421875 211.76132202148438 105.6408920288086 C 211.22906494140625 105.42436981201172 209.20370483398438 104.6800765991211 205.68524169921875 103.40804290771484 C 197.2589874267578 100.09709167480469 185.15647888183594 98.44159698486328 169.3775634765625 98.44159698486328 C 153.60769653320312 98.44159698486328 139.98951721191406 100.28202056884766 128.52297973632812 103.96286010742188 C 117.06547546386719 107.6436996459961 107.3401107788086 113.2145767211914 99.346923828125 120.67549133300781 C 82.81924438476562 136.1295928955078 74.55541229248047 158.62059020996094 74.55541229248047 188.1484832763672 C 74.55541229248047 218.1094207763672 82.76510620117188 243.4287109375 99.1845474243164 264.1063537597656 C 116.87600708007812 286.2815856933594 140.1157989501953 297.36920166015625 168.9039306640625 297.36920166015625 C 187.98471069335938 297.36920166015625 211.3824005126953 291.29315185546875 239.0969696044922 279.14093017578125 C 238.24896240234375 279.8807373046875 237.4504852294922 280.5708923339844 236.70167541503906 281.21142578125 C 235.63714599609375 282.38421630859375 234.30645751953125 283.6111755371094 232.70962524414062 284.8922424316406 C 201.6841278076172 308.1320495605469 169.5399627685547 319.751953125 136.27708435058594 319.751953125 C 107.60625457763672 319.751953125 84.68672943115234 308.9304504394531 67.51850128173828 287.2875061035156 C 51.64039611816406 267.14215087890625 43.701332092285156 242.1431121826172 43.701332092285156 212.2904510498047 C 43.701332092285156 196.94461059570312 45.96575927734375 183.96694946289062 50.494625091552734 173.35748291015625 C 55.02351760864258 162.7480010986328 60.32825469970703 153.28878784179688 66.40884399414062 144.97984313964844 C 72.48042297363281 136.66188049316406 79.3819808959961 128.98443603515625 87.11356353759766 121.94754791259766 C 94.84510040283203 114.91065979003906 103.21271514892578 108.59548950195312 112.21631622314453 103.00205993652344 C 121.21995544433594 97.40863800048828 130.57542419433594 92.63616943359375 140.28269958496094 88.68468475341797 C 160.2115478515625 80.58323669433594 180.30731201171875 76.53251647949219 200.56996154785156 76.53251647949219 C 211.9733428955078 76.53251647949219 221.56785583496094 77.5203857421875 229.35354614257812 79.4961166381836 Z " style="white-space: pre; fill: rgb(255, 255, 255);" transform="matrix(1.0000000000000002, 0, 0, 1.0000000000000002, 0, -11.4463623046875)"/>
  <path d="M 392.03546142578125 162.19268798828125 C 426.5621337890625 104.66602325439453 443.825439453125 65.07268524169922 443.825439453125 43.412689208984375 C 443.825439453125 33.946014404296875 440.9621276855469 27.596023559570312 435.2354736328125 24.362686157226562 C 433.162109375 23.196014404296875 430.6521301269531 22.612686157226562 427.7054443359375 22.612686157226562 C 424.7587890625 22.612686157226562 421.748779296875 23.152679443359375 418.67547607421875 24.232681274414062 C 421.91546630859375 22.906021118164062 424.8021240234375 21.059356689453125 427.33544921875 18.69268798828125 C 429.86212158203125 16.326019287109375 431.8321228027344 14.479354858398438 433.2454833984375 13.152679443359375 C 434.6588134765625 11.826019287109375 436.2354736328125 10.6226806640625 437.9754638671875 9.542694091796875 C 441.7154541015625 7.136016845703125 446.26214599609375 5.9326934814453125 451.615478515625 5.9326934814453125 C 456.96881103515625 5.9326934814453125 461.03546142578125 7.57269287109375 463.8154602050781 10.852691650390625 C 466.595458984375 14.126022338867188 467.9854736328125 18.566024780273438 467.9854736328125 24.172683715820312 C 467.9854736328125 29.772689819335938 467.0321350097656 36.14268493652344 465.1254577636719 43.282684326171875 C 463.2121276855469 50.42268371582031 460.72210693359375 57.852691650390625 457.65545654296875 65.57268524169922 C 454.5821228027344 73.29268646240234 451.0721435546875 81.13601684570312 447.1254577636719 89.1026840209961 C 443.1854553222656 97.06935119628906 439.1387939453125 104.78935241699219 434.9854736328125 112.26268768310547 C 430.75213623046875 119.9826889038086 425.23211669921875 129.52935791015625 418.42547607421875 140.90267944335938 C 411.6188049316406 152.27601623535156 406.8887939453125 160.22268676757812 404.2354736328125 164.74269104003906 C 401.5821228027344 169.26934814453125 399.13214111328125 172.79934692382812 396.8854675292969 175.3326873779297 C 394.64544677734375 177.85935974121094 392.365478515625 179.8726806640625 390.04547119140625 181.3726806640625 C 387.71881103515625 182.86602783203125 385.30877685546875 184.35935974121094 382.8154602050781 185.85269165039062 C 376.17547607421875 189.8326873779297 372.3587951660156 192.48934936523438 371.365478515625 193.82269287109375 C 368.6254577636719 182.78268432617188 366.0087890625 171.7193603515625 363.5154724121094 160.6326904296875 C 361.02880859375 149.5526885986328 358.3754577636719 138.49269104003906 355.5554504394531 127.45268249511719 C 349.1621398925781 102.05268859863281 342.39544677734375 80.34602355957031 335.2554626464844 62.33268737792969 C 334.3421325683594 60.092689514160156 333.3054504394531 57.53935241699219 332.14544677734375 54.67268371582031 C 330.9787902832031 51.81268310546875 329.672119140625 48.90934753417969 328.2254638671875 45.96269226074219 C 326.7721252441406 43.016021728515625 325.1521301269531 40.12934875488281 323.3654479980469 37.30268859863281 C 321.57879638671875 34.48268127441406 319.6087951660156 31.992691040039062 317.4554748535156 29.832687377929688 C 312.7221374511719 24.939346313476562 307.6154479980469 22.492691040039062 302.1354675292969 22.492691040039062 C 299.2287902832031 22.492691040039062 296.345458984375 23.239349365234375 293.4854736328125 24.732681274414062 C 290.6188049316406 26.22601318359375 288.5221252441406 27.096023559570312 287.1954650878906 27.342681884765625 C 287.27545166015625 27.342681884765625 287.85546875 26.846023559570312 288.9354553222656 25.852691650390625 C 290.0154724121094 24.859359741210938 290.8254699707031 24.1326904296875 291.3654479980469 23.672683715820312 C 291.90545654296875 23.2193603515625 292.77545166015625 22.512680053710938 293.9754638671875 21.552688598632812 C 295.18212890625 20.599349975585938 297.2187805175781 19.10601806640625 300.08544921875 17.07269287109375 C 302.9454650878906 15.039352416992188 305.9121398925781 13.152679443359375 308.9854736328125 11.412689208984375 C 316.2054748535156 7.2593536376953125 321.7254638671875 5.1826934814453125 325.54547119140625 5.1826934814453125 C 329.365478515625 5.1826934814453125 332.14544677734375 5.5560150146484375 333.8854675292969 6.3026885986328125 C 335.63214111328125 7.049346923828125 337.6854553222656 8.482681274414062 340.04547119140625 10.602691650390625 C 342.4121398925781 12.716018676757812 345.0487976074219 16.202682495117188 347.9554443359375 21.06268310546875 C 350.86212158203125 25.916015625 353.6854553222656 31.51934814453125 356.42547607421875 37.8726806640625 C 359.16546630859375 44.2193603515625 361.7987976074219 51.10601806640625 364.3254699707031 58.532684326171875 C 366.8587951660156 65.96601867675781 369.2887878417969 73.58268737792969 371.615478515625 81.3826904296875 C 373.9354553222656 89.1893539428711 376.1354675292969 96.99268341064453 378.2154541015625 104.79268646240234 C 380.2887878417969 112.59268951416016 382.17547607421875 120.04268646240234 383.8754577636719 127.14268493652344 C 385.5754699707031 134.24269104003906 387.11212158203125 140.79934692382812 388.4854736328125 146.81268310546875 C 389.85211181640625 152.8326873779297 391.03546142578125 157.9593505859375 392.03546142578125 162.19268798828125 Z " transform="matrix(1, 0, 0, 1, -111.02971649169922, 114.463623046875)" style="white-space: pre; fill: rgb(255, 255, 255);"/>
</svg>